<svg preserveAspectRatio="none" overflow="visible" style="display: block;" width="100.667" height="121.553" viewBox="0 0 100.667 121.553" fill="none" xmlns="http://www.w3.org/2000/svg">
<path id="Vector 4" d="M0 2.66667C0 4.13943 1.19391 5.33333 2.66667 5.33333C4.13943 5.33333 5.33333 4.13943 5.33333 2.66667C5.33333 1.19391 4.13943 0 2.66667 0C1.19391 0 0 1.19391 0 2.66667ZM2.66667 118.667H2.16667V119.167H2.66667V118.667ZM95.6667 119.167L100.667 121.553V115.78L95.6667 118.167V119.167ZM2.66667 2.66667H2.16667V4.7381H2.66667H3.16667V2.66667H2.66667ZM2.66667 8.88095H2.16667V13.0238H2.66667H3.16667V8.88095H2.66667ZM2.66667 17.1667H2.16667V21.3095H2.66667H3.16667V17.1667H2.66667ZM2.66667 25.4524H2.16667V29.5952H2.66667H3.16667V25.4524H2.66667ZM2.66667 33.7381H2.16667V37.881H2.66667H3.16667V33.7381H2.66667ZM2.66667 42.0238H2.16667V46.1667H2.66667H3.16667V42.0238H2.66667ZM2.66667 50.3095H2.16667V54.4524H2.66667H3.16667V50.3095H2.66667ZM2.66667 58.5952H2.16667V62.7381H2.66667H3.16667V58.5952H2.66667ZM2.66667 66.8809H2.16667V71.0238H2.66667H3.16667V66.8809H2.66667ZM2.66667 75.1667H2.16667V79.3095H2.66667H3.16667V75.1667H2.66667ZM2.66667 83.4524H2.16667V87.5952H2.66667H3.16667V83.4524H2.66667ZM2.66667 91.7381H2.16667V95.881H2.66667H3.16667V91.7381H2.66667ZM2.66667 100.024H2.16667V104.167H2.66667H3.16667V100.024H2.66667ZM2.66667 108.31H2.16667V112.452H2.66667H3.16667V108.31H2.66667ZM2.66667 116.595H2.16667V118.667H2.66667H3.16667V116.595H2.66667ZM2.66667 118.667V119.167H4.70833V118.667V118.167H2.66667V118.667ZM8.79167 118.667V119.167H12.875V118.667V118.167H8.79167V118.667ZM16.9583 118.667V119.167H21.0417V118.667V118.167H16.9583V118.667ZM25.125 118.667V119.167H29.2083V118.667V118.167H25.125V118.667ZM33.2917 118.667V119.167H37.375V118.667V118.167H33.2917V118.667ZM41.4583 118.667V119.167H45.5417V118.667V118.167H41.4583V118.667ZM49.625 118.667V119.167H53.7083V118.667V118.167H49.625V118.667ZM57.7917 118.667V119.167H61.875V118.667V118.167H57.7917V118.667ZM65.9583 118.667V119.167H70.0417V118.667V118.167H65.9583V118.667ZM74.125 118.667V119.167H78.2083V118.667V118.167H74.125V118.667ZM82.2917 118.667V119.167H86.375V118.667V118.167H82.2917V118.667ZM90.4583 118.667V119.167H94.5417V118.667V118.167H90.4583V118.667Z" fill="#46484B"/>
</svg>
